<svg enable-background="new 0 0 1881.25 1750" viewBox="0 0 1881.25 1750" xmlns="http://www.w3.org/2000/svg" xmlns:xlink="http://www.w3.org/1999/xlink"><linearGradient id="a" gradientTransform="matrix(1 0 0 -1 0 1752)" gradientUnits="userSpaceOnUse" x1="167.2057" x2="795.2943" y1="1420.9117" y2="333.0883"><stop offset="0" stop-color="#2368c4"/><stop offset=".5" stop-color="#1a5dbe"/><stop offset="1" stop-color="#1146ac"/></linearGradient><path d="m1801.056 0h-1283.362c-44.29 0-80.194 35.904-80.194 80.194v357.306l743.75 218.75 700-218.75v-357.306c0-44.29-35.904-80.194-80.194-80.194z" fill="#41a5ee"/><path d="m1881.25 437.5h-1443.75v437.5l743.75 131.25 700-131.25z" fill="#2b7cd3"/><path d="m437.5 875v437.5l700 87.5 743.75-87.5v-437.5z" fill="#185abd"/><path d="m517.694 1750h1283.363c44.29 0 80.194-35.904 80.194-80.194v-357.306h-1443.751v357.306c0 44.29 35.904 80.194 80.194 80.194z" fill="#103f91"/><path d="m969.806 350h-532.306v1093.75h532.306c44.23-.144 80.05-35.964 80.194-80.194v-933.362c-.144-44.23-35.964-80.05-80.194-80.194z" opacity=".1"/><path d="m926.056 393.75h-488.556v1093.75h488.556c44.23-.144 80.05-35.964 80.194-80.194v-933.362c-.144-44.23-35.964-80.05-80.194-80.194z" opacity=".2"/><path d="m926.056 393.75h-488.556v1006.25h488.556c44.23-.144 80.05-35.964 80.194-80.194v-845.862c-.144-44.23-35.964-80.05-80.194-80.194z" opacity=".2"/><path d="m882.306 393.75h-444.806v1006.25h444.806c44.23-.144 80.05-35.964 80.194-80.194v-845.862c-.144-44.23-35.964-80.05-80.194-80.194z" opacity=".2"/><path d="m80.194 393.75h802.112c44.29 0 80.194 35.904 80.194 80.194v802.113c0 44.29-35.904 80.194-80.194 80.194h-802.112c-44.29 0-80.194-35.904-80.194-80.194v-802.113c0-44.29 35.904-80.194 80.194-80.194z" fill="url(#a)"/><path d="m329.088 1008.788c1.575 12.381 2.625 23.144 3.106 32.375h1.837c.7-8.75 2.158-19.294 4.375-31.631 2.217-12.338 4.215-22.765 5.994-31.281l84.35-363.913h109.069l87.5 358.444c5.084 22.288 8.723 44.881 10.894 67.637h1.444c1.631-22.047 4.671-43.966 9.1-65.625l69.781-360.631h99.269l-122.588 521.5h-115.981l-83.125-345.363c-2.406-9.931-5.162-22.925-8.181-38.894s-4.9-27.65-5.644-35h-1.444c-.962 8.487-2.844 21.088-5.644 37.8-2.8 16.713-5.046 29.079-6.738 37.1l-78.138 344.269h-117.95l-123.243-521.238h101.062l75.994 364.656c1.707 7.482 3.326 17.457 4.901 29.795z" fill="#fff"/></svg>