<svg height="96" width="96" xmlns="http://www.w3.org/2000/svg" xmlns:xlink="http://www.w3.org/1999/xlink"><linearGradient id="a"><stop offset="0"/><stop offset="1" stop-opacity="0"/></linearGradient><linearGradient id="b"><stop offset="0" stop-color="#1d77ab"/><stop offset="1" stop-color="#0f557d"/></linearGradient><linearGradient id="c"><stop offset="0" stop-color="#fff"/><stop offset="1" stop-color="#fff" stop-opacity="0"/></linearGradient><linearGradient id="d" gradientTransform="matrix(1.0058652 0 0 .994169 100 0)" gradientUnits="userSpaceOnUse" x1="45.447727" x2="45.447727" y1="92.539597" y2="7.01654"><stop offset="0"/><stop offset="1" stop-opacity=".588235"/></linearGradient><linearGradient id="e" gradientUnits="userSpaceOnUse" x1="148" x2="148" y1="90" y2="5.987717"><stop offset="0" stop-color="#2276c5"/><stop offset="1" stop-color="#68baf4"/></linearGradient><linearGradient id="f" gradientUnits="userSpaceOnUse" x1="72" x2="72" xlink:href="#b" y1="8" y2="88"/><linearGradient id="g" gradientUnits="userSpaceOnUse" x1="32" x2="32" xlink:href="#b" y1="6" y2="90"/><radialGradient id="h" cx="48" cy="90.171875" gradientTransform="matrix(1.1573129 0 0 .99590774 -7.551021 .197132)" gradientUnits="userSpaceOnUse" r="42" xlink:href="#c"/><linearGradient id="i" gradientUnits="userSpaceOnUse" x1="36.357143" x2="36.357143" xlink:href="#c" y1="6" y2="63.893143"/><linearGradient id="j" gradientUnits="userSpaceOnUse" x1="32" x2="32" xlink:href="#c" y1="6" y2="64"/><linearGradient id="k" gradientUnits="userSpaceOnUse" x1="48" x2="48" y1="80" y2="16"><stop offset="0" stop-color="#dfdfdf"/><stop offset="1" stop-color="#fefefe"/></linearGradient><radialGradient id="l" cx="47.999981" cy="47.999424" gradientTransform="matrix(1.3452582 -.00000004 .00000003 1.1448837 -16.572388 -6.954329)" gradientUnits="userSpaceOnUse" r="34.937546" xlink:href="#a"/><linearGradient id="m" gradientUnits="userSpaceOnUse" x1="49" x2="49" xlink:href="#d" y1="91" y2="7"/><linearGradient id="n" gradientUnits="userSpaceOnUse" x1="38" x2="38" xlink:href="#d" y1="94" y2="5"/><linearGradient id="o" gradientUnits="userSpaceOnUse" x1="45" x2="45" xlink:href="#d" y1="95" y2="4"/><linearGradient id="p" gradientUnits="userSpaceOnUse" x1="50" x2="50" xlink:href="#d" y1="92" y2="7"/><linearGradient id="q" gradientUnits="userSpaceOnUse" x1="47" x2="47" xlink:href="#d" y1="93" y2="6"/><linearGradient id="r" gradientUnits="userSpaceOnUse" x1="32" x2="32" y1="88" y2="8"><stop offset="0" stop-color="#b3b3b3"/><stop offset="1" stop-color="#e6e6e6"/></linearGradient><linearGradient id="s"><stop offset="0" stop-opacity="0"/><stop offset=".49305555"/><stop offset="1" stop-opacity="0"/></linearGradient><linearGradient id="t" gradientTransform="matrix(.0458673 0 0 1 -271.91178 3045.2778)" gradientUnits="userSpaceOnUse" x1="-17" x2="144" xlink:href="#s" y1="-1194.6378" y2="-1194.6378"/><linearGradient id="u" gradientTransform="matrix(.07453431 0 0 1 -655.73308 2938.2756)" gradientUnits="userSpaceOnUse" x1="-17" x2="144" xlink:href="#s" y1="-1194.6378" y2="-1194.6378"/><linearGradient id="v"><stop offset="0" stop-color="#0369a3"/><stop offset="1" stop-color="#023f62"/></linearGradient><linearGradient id="w" gradientTransform="matrix(1.00399 0 0 1.00959 -1.49914 -9.36636)" gradientUnits="userSpaceOnUse" x1="168.82439" x2="168.82439" xlink:href="#v" y1="-1409.7456" y2="-1156.1785"/><linearGradient id="x"><stop offset="0" stop-color="#000061"/><stop offset="1" stop-color="#006f86" stop-opacity="0"/></linearGradient><linearGradient id="y"><stop offset="0" stop-color="#666"/><stop offset="1" stop-color="#666" stop-opacity=".5"/></linearGradient><linearGradient id="z"><stop offset="0" stop-color="#808080"/><stop offset="1" stop-color="#666"/></linearGradient><linearGradient id="A" gradientTransform="matrix(-.5 0 0 .60714286 286 -53.679907)" gradientUnits="userSpaceOnUse" x1="516.04974" x2="495.66605" xlink:href="#x" y1="192.9848" y2="192.9848"/><linearGradient id="B" gradientTransform="matrix(.28571429 0 0 .28571433 -44.285714 493.89655)" gradientUnits="userSpaceOnUse" x1="298" x2="298" y1="-1587.6377" y2="-1507.6377"><stop offset="0" stop-color="#259dd2"/><stop offset="1" stop-color="#025583"/></linearGradient><linearGradient id="C" gradientTransform="matrix(9.81802 0 0 8 -2168.87 4579.1)" gradientUnits="userSpaceOnUse" x1="230" x2="230" y1="-581.63782" y2="-577.57336"><stop offset="0" stop-color="#44adeb"/><stop offset="1" stop-color="#aadcf7"/></linearGradient><linearGradient id="D" gradientTransform="matrix(-8.86632 0 0 8.1065 3146.88 -9585.56)" gradientUnits="userSpaceOnUse" x1="345" x2="345" y1="1173" y2="1178"><stop offset="0" stop-color="#666"/><stop offset="1" stop-color="#333"/></linearGradient><linearGradient id="E" gradientUnits="userSpaceOnUse" x1="45.69568" x2="60.36813" xlink:href="#c" y1="-51.8792" y2="-42.1565"/><linearGradient id="F" gradientTransform="matrix(8.86632 0 0 8.1065 -3046.88 -9583.06)" gradientUnits="userSpaceOnUse" x1="345" x2="345" y1="1173.9109" y2="1178"><stop offset="0" stop-color="#666"/><stop offset="1" stop-color="#1a1a1a"/></linearGradient><linearGradient id="G" gradientUnits="userSpaceOnUse" x1="55.54143" x2="55.54143" y1="-29.8252173808" y2="-37.7264163696"><stop offset="0" stop-color="#18a303"/><stop offset="1" stop-color="#106802"/></linearGradient><linearGradient id="H" gradientTransform="matrix(8.86632 0 0 8.1065 -3046.88 -9572.96)" gradientUnits="userSpaceOnUse" x1="345" x2="345" xlink:href="#v" y1="1173" y2="1178"/><linearGradient id="I" gradientUnits="userSpaceOnUse" x1="36.37491" x2="36.37491" xlink:href="#y" y1="-49.7185" y2="-42.7617"/><radialGradient id="J" cx="-1535.3044" cy="-842.90808" gradientTransform="matrix(-3.31574 0 0 -7.58441 -5016.37 -6481.31)" gradientUnits="userSpaceOnUse" r="10"><stop offset="0" stop-color="#fff"/><stop offset="1" stop-color="#00a8ff" stop-opacity="0"/></radialGradient><linearGradient id="K" gradientUnits="userSpaceOnUse" x1="36.37491" x2="36.37491" xlink:href="#y" y1="-49.7185" y2="-38.009"/><linearGradient id="L" gradientUnits="userSpaceOnUse" x1="48.55026" x2="48.55026" xlink:href="#z" y1="-47.306" y2="-41.0862"/><linearGradient id="M" gradientUnits="userSpaceOnUse" x1="48.55026" x2="48.55026" xlink:href="#z" y1="-46.056" y2="-39.5862"/><linearGradient id="N" gradientUnits="userSpaceOnUse" x1="36.375" x2="36.375" y1="-31.9978" y2="-25.8715"><stop offset="0" stop-color="#0369a3"/><stop offset="1" stop-color="#047fc6"/></linearGradient><linearGradient id="O" gradientUnits="userSpaceOnUse" x1="445.69522" x2="441.38797" y1="1103.5776" y2="1099.8198"><stop offset="0" stop-color="#e9b913"/><stop offset="1" stop-color="#ff0"/></linearGradient><radialGradient id="P" cx="58" cy="44.923077" gradientTransform="matrix(1.4285714 0 0 .76190473 -22.857143 11.772895)" gradientUnits="userSpaceOnUse" r="10.5" xlink:href="#a"/><linearGradient id="Q" gradientTransform="matrix(.32258065 0 0 .4 -56.387096 678.65508)" gradientUnits="userSpaceOnUse" x1="297.25" x2="297.25" y1="-1601.6377" y2="-1516.6377"><stop offset="0" stop-color="#259dd2"/><stop offset="1" stop-color="#065d8d"/></linearGradient><linearGradient id="R" gradientTransform="matrix(.5 0 0 .64285715 -190 -61.072843)" gradientUnits="userSpaceOnUse" x1="516.04974" x2="495.66605" xlink:href="#x" y1="192.9848" y2="192.9848"/><g><path d="m55.1875 4.03125c-1.586892.01273-3.134804.183481-4.5.0625a.86417393.86417393 0 0 0 -.0625 0h-38.9375c-3.4158415.013813-6.214489 2.0686081-7.90625 4.75-1.1702855 1.854869-1.9220747 4.098647-1.65625 6.4375h-.03125c.020721 23.544327-.041587 47.076235.03125 70.625a.86417393.86417393 0 0 0 0 .0625c.1299115 1.45786.6427828 2.791243 1.34375 3.96875.0000685.000154-.021457-.07213-.03125-.125.029603.08798.0497.149646.0625.1875.00647.01101.022369.01648.03125.03125.00759.01244.023609.01885.03125.03125a.86417393.86417393 0 0 0 .0625.09375c.01166.01455.021588.02031.03125.03125.0058.0066-.00442.02694 0 .03125.00352.0055.027722-.0055.03125 0a.86417393.86417393 0 0 0 .03125.03125c.011239.009.021767.02426.03125.03125 1.9389671 2.960312 5.3597779 4.946004 9.03125 4.625.03167-.0028.06205.0031.09375 0 24.003862-.02052 48.023104.04148 72.03125-.03125a.86417393.86417393 0 0 0 .0625 0c5.232692-.424353 9.363638-5.348882 8.9375-10.625-.0026-.03164.0029-.06208 0-.09375v-43.8125a.86417393.86417393 0 0 0 -.0625-.25c-.719482-2.375756-2.289701-4.166643-3.96875-5.75-.0898-.08468-.159649-.16622-.25-.25 2.217943-.09 4.345545-1.878609 4.25-4.3125-.00096-.02446.03266-.03792.03125-.0625-.07568-5.673939.162469-11.414428-.125-17.15625a.86417393.86417393 0 0 0 -.03125-.0625c-.679074-5.3493381-6.008019-9.0551398-11.28125-8.375v-.03125h-14.875a.86417393.86417393 0 0 0 -.03125 0c-2.43157.09487-3.933975 2.3671886-3.875 4.5625-1.182961-1.1519916-2.340863-2.3245745-3.53125-3.46875a.86417393.86417393 0 0 0 -.15625-.125c-1.552382-.8907066-3.231429-1.043933-4.8125-1.03125zm-51.75 85.34375c-.011805.08495-.021775.15025-.03125.21875-.00282-.01512.0000031-.06256 0-.0625-.0000092.000178.00988-.07797.03125-.15625z" fill="url(#o)" opacity=".08"/><path d="m11.6875 4.96875c-5.2554262.0212519-9.3843932 5.163803-8.71875 10.297893.0207228 23.546358-.0415773 47.094147.03125 70.639607.4299704 4.825107 5.0025873 8.594459 9.794564 8.125 24.03705-.02076 48.075533.04156 72.111686-.03125 4.755149-.385626 8.563194-4.946912 8.125-9.759986 0-14.632088 0-29.264176 0-43.896264-1.303245-4.303363-5.828831-6.639817-8.590969-10.024693-8.302036-8.151321-16.487881-16.431046-24.873486-24.4911184-2.705711-1.5524499-5.956171-.5955422-8.931258-.8591886-12.982679 0-25.965358 0-38.948037 0zm55.90625 0c-2.759174.107652-4.215938 3.9181439-2.21875 5.8125 7.428816 7.284428 14.759202 14.709293 22.25 21.90625 2.146989 1.600781 5.560459-.220208 5.40625-2.90625-.0787-5.72616.160862-11.477784-.125-17.1875-.617749-4.866259-5.593014-8.3130421-10.426221-7.625-4.962093 0-9.924186 0-14.886279 0zm-62.96875 4.25c-.664712.7015826-.2455996-.1311819 0 0zm-.375 80.34375c.89304.481702.1043481.183981 0 0z" fill="url(#n)" opacity=".1"/><path d="m11.71875 6.03125c-4.6749288.016024-8.335913 4.649594-7.6875 9.205357.020755 23.525099-.041623 47.051796.03125 70.575893.078659 2.310955 1.9991295 4.959021 3.5 5.8125 3.325107 2.20027 7.499502 1.059932 11.244643 1.34375 22.001587-.02075 44.00477.04153 66.005357-.03125 4.47154-.328201 7.729294-4.802826 7.15625-9.174107 0-14.431548 0-28.863095 0-43.294643-1.433307-3.954961-5.659416-6.191568-8.277839-9.399069-8.251175-8.114984-16.412923-16.329029-24.730859-24.3711885-2.483609-1.2572923-5.416278-.4289814-8.111839-.6672425-13.043154 0-26.086309 0-39.129463 0zm55.96875 0c-2.205191.1075388-2.966283 3.2728052-1.116957 4.441476 7.239865 7.096549 14.373212 14.326121 21.679457 21.339774 1.836491 1.323197 4.248482-.713747 3.71875-2.773214-.09408-5.54138.194785-11.109384-.15625-16.633036-.734258-4.2396168-5.146244-6.9445556-9.296429-6.375-4.942857 0-9.885714 0-14.828571 0z" fill="url(#q)" opacity=".2"/><path d="m11.75 7c-4.166976.0345334-7.3503459 4.168998-6.75 8.209199.0208047 23.502958-.0417012 47.007726.03125 70.509551.3052061 3.977627 4.3015194 6.815319 8.169789 6.28125 23.839012-.020761 47.67983.041565 71.517711-.03125 3.994836-.299314 6.810237-4.315761 6.28125-8.177949 0-14.409435.000001-28.818867 0-43.228301-1.613047-3.595214-5.487793-5.779049-7.996012-8.804747-8.204439-8.081322-16.343506-16.235423-24.599756-24.2602515-2.300271-.9853918-4.95833-.2881995-7.418979-.4975015-13.078418 0-26.156835 0-39.235253 0zm56.03125 0c-1.584.1218738-1.65926 2.3105912-.359006 2.9475286 7.164444 7.0242754 14.225294 14.1753034 21.454221 21.1206914 1.3987.747222 2.54336-.938528 2.123535-2.22308-.094791-5.413718.196057-10.85784-.15625-16.25139-.632604-3.7950602-4.62029-6.1149779-8.294789-5.59375-4.922571 0-9.845141 0-14.767711 0z" fill="url(#p)" opacity=".3"/><path d="m12 7c-3.324 0-6 2.676-6 6v11 50 11c0 3.324 2.676 6 6 6h7 65c3.324 0 6-2.676 6-6v-.71875-10.28125-33.5625c.0048-.09367.0048-.187581 0-.28125-.06619-.633386-.358634-1.240774-.8125-1.6875-9.535501-9.568715-21.104142-21.104142-30.65625-30.65625-.454532-.4602109-1.074627-.7533469-1.71875-.8125h-44.09375zm55.3125 0a1.4099078 1.4099078 0 0 0 -.84375 2.40625l21.125 21.125a1.4099078 1.4099078 0 0 0 2.40625-.90625 1.4099078 1.4099078 0 0 0 0-.09375v-12.53125-3.71875-.28125c0-3.324-2.676-6-6-6z" fill="url(#m)" opacity=".45"/></g><g><path d="m12 6c-3.324 0-6 2.676-6 6v11 50 11c0 3.324 2.676 6 6 6h7 65c3.324 0 6-2.676 6-6v-.71875-10.28125-33.5625c.0048-.09367.0048-.187581 0-.28125-.06619-.633386-.358634-1.240774-.8125-1.6875-9.535501-9.568715-21.104142-21.104142-30.65625-30.65625-.454532-.4602109-1.074627-.7533469-1.71875-.8125h-44.09375z" fill="url(#g)"/><path d="m67.3125 6a1.4099078 1.4099078 0 0 0 -.84375 2.40625l21.125 21.125a1.4099078 1.4099078 0 0 0 2.40625-.90625 1.4099078 1.4099078 0 0 0 0-.09375v-12.53125-3.71875-.28125c0-3.324-2.676-6-6-6z" fill="url(#f)"/><path d="m10.15625 6.34375c-.301527.096803-.596455.204138-.875.34375-.55709.279224-1.060053.665694-1.5 1.09375-.219974.214028-.409366.441865-.59375.6875s-.355408.507743-.5.78125c-.113805.2152707-.221817.4301347-.3125.65625-.02097.052285-.04393.102205-.0625.15625-.01036.03015-.02135.06337-.03125.09375-.006.01873.0058.04369 0 .0625-.02154.07131-.04532.145178-.0625.21875-.04593.196664-.09198.393321-.125.59375-.0524.31805-.09375.634029-.09375.96875v2 9 50 9 2c0 3.324 2.676 6 6 6h7 65c3.324 0 6-2.676 6-6v-.71875-1.28125-9-35.5625a2.772031 2.772031 0 0 0 0-.28125 2.772031 2.772031 0 0 0 -.8125-1.6875l-.1875-.1875v45.71875 2c0 2.781848-2.218152 5-5 5h-2-68-2c-2.781848 0-5-2.218152-5-5v-2-68-2c0-.364295.05212-.720988.125-1.0625.02336-.109469.06342-.205882.09375-.3125.0267-.094419.03068-.1893.0625-.28125.0077-.02195.02325-.04069.03125-.0625.07558-.209299.180242-.430294.28125-.625.05727-.107983.12274-.209468.1875-.3125.02405-.03913.03741-.08662.0625-.125.09411-.140965.204921-.275995.3125-.40625.15254-.185862.32207-.369817.5-.53125.09922-.088888.206327-.1692.3125-.25.112727-.086487.223355-.1733.34375-.25.03146-.01999.06182-.0432.09375-.0625.0074-.0045.02385.0044.03125 0 .232039-.138728.462548-.274778.71875-.375z" fill="url(#h)" opacity=".2"/><rect fill="url(#e)" height="84" rx="6" width="84" x="106" y="6"/><path d="m114 6 26 26v4l-30-30z" fill="#f0f"/><path d="m67.3125 6a1.4099078 1.4099078 0 0 0 -1.125 2h15.8125 2c2.781848 0 5 2.218152 5 5v2 14.875a1.4099078 1.4099078 0 0 0 1-1.125 1.4099078 1.4099078 0 0 0 0-.125 1.4099078 1.4099078 0 0 0 0-.09375v-12.53125-2-1.71875-.28125c0-3.324-2.676-6-6-6z" fill="url(#i)" opacity=".3"/><path d="m12 6c-3.324 0-6 2.676-6 6v11 50 11c0 2.9085 2.042227 5.31735 4.78125 5.875-2.205116-.53621-3.8125-2.49084-3.8125-4.875v-11-50-11c0-2.80489 2.22636-5.03125 5.03125-5.03125h.71875 44 .09375c.01105.0018.01709.02303.0625.03125.107322.01943.05104.0025.15625.03125.105213.02873.05395-.0066.15625.03125.1023.03782.05765.01589.15625.0625s.03085.0074.125.0625c.09415.05505.03602.03068.125.09375s.04187.02315.125.09375.04836.0474.125.125c9.568715 9.535501 21.104142 21.104142 30.65625 30.65625.07653.07532.05524.04337.125.125s.03127.03767.09375.125.0078.03262.0625.125c.05473.09238.04717.02825.09375.125s.02441.05585.0625.15625c.03809.100399.0019.0217.03125.125.02931.103304.01094.05081.03125.15625.0164.08517.02694.08025.03125.125.0011.02106-.000344.02472 0 .03125.000689.01307 0 .02033 0 .0625 0 .06326.0032-.000676 0 .0625-.000673.02083-.000673.04167 0 .0625v33.5625 10.28125.71875c0 2.38416-1.607383 4.33879-3.8125 4.875 2.739023-.55765 4.78125-2.9665 4.78125-5.875v-.71875-10.28125-33.5625c.0048-.09367.0048-.187581 0-.28125-.06619-.633386-.358634-1.240774-.8125-1.6875-9.535501-9.568715-21.104142-21.104142-30.65625-30.65625-.454532-.4602109-1.074627-.7533469-1.71875-.8125h-44.09375z" fill="url(#j)" opacity=".3"/><g fill="url(#w)" stroke-width="15.9966" transform="matrix(.31005255049 0 0 .31000108229 -116.0887371467 445.4166944512)"><path d="m-39.993353-1184.5675c0 3.8673 3.622442 7.9298 7.756866 7.9298h191.986687c4.62705 0 8.24949-3.8705 8.24949-7.7455v-149.2144c0-4.2249-.51199-6.1833-3.49989-9.171l-85.323928-85.2984c-2.988223-2.9873-5.273683-4.5274-9.499625-4.5307l-101.735939-.08c-4.133464 0-7.933661 3.6832-7.933661 8.1221z"/><path d="m103.25988-1421.8904 53.19027 53.4419c4.33857 4.3589 11.55354 3.3243 11.55354-3.5507v-52.4417c0-4.2273-3.82644-8.1968-8.03174-8.1968h-53.19026c-6.837537 0-7.137368 7.1146-3.52181 10.7473z"/></g></g><g><path d="m14 12.03125c-1.155927 0-1.96875.812823-1.96875 1.96875v9 33 17 8.28125.71875c0 1.077732.717552 1.836973 1.75 1.9375.07491.0073.140555.03125.21875.03125h5 58 5c.07224 0 .1493-.0086.21875-.03125 1.032448-.100527 1.75-.859768 1.75-1.9375v-.71875-8.28125-17-16.0625c-9.316072-9.28832-18.604243-18.604243-27.90625-27.90625h-41.34375z" fill="url(#r)"/><path d="m17.90625 17.0625c-.459951.04302-.84925.475575-.84375.9375v9 42 9c-.0037.491884.445616.941233.9375.9375h5 55c.491884.0037.941233-.445616.9375-.9375v-9-27.40625c-.0027-.244241-.10626-.48584-.28125-.65625l-23.59375-23.59375c-.17041-.17499-.412009-.278532-.65625-.28125h-36.40625c-.03122-.0016-.06253-.0016-.09375 0z" fill="url(#l)" opacity=".6"/><path d="m18 18v9 42 9h5 55v-9-27.40625l-23.59375-23.59375z" fill="url(#k)"/><path d="m18 18v9 42 9h5 55v-9-27.40625l-23.59375-23.59375zm1 1h35.03125l22.96875 22.96875v27.03125 8h-54-4v-8-42z" fill="#fff" opacity=".7"/><path d="m14 12.03125c-1.155927 0-1.96875.812823-1.96875 1.96875v9 33 17 8.28125.71875c0 1.077732.717552 1.836973 1.75 1.9375.07491.0073.140555.03125.21875.03125h5 58 5c.07224 0 .1493-.0086.21875-.03125 1.032448-.100527 1.75-.859768 1.75-1.9375v-.71875-8.28125-17-16.0625c-9.316072-9.28832-18.604243-18.604243-27.90625-27.90625h-41.34375zm0 .96875h.71875 40.9375c9.113593 9.114133 18.214692 18.240801 27.34375 27.34375v15.65625 17 8.28125.71875c0 .648416-.267049.909555-.875.96875a.96731774.96731774 0 0 0 -.125.03125h-5-58-5c.119302 0 .09888-.0094-.125-.03125-.607951-.059195-.875-.320334-.875-.96875v-.71875-8.28125-17-33-9c0-.702508.297492-1 1-1z" opacity=".1"/><path d="m14 12.03125c-1.155927 0-1.96875.812823-1.96875 1.96875v1c0-1.155927.812823-1.96875 1.96875-1.96875h.71875 41.34375c9.302007 9.302007 18.590178 18.61793 27.90625 27.90625v-1c-9.316072-9.28832-18.604243-18.604243-27.90625-27.90625h-41.34375z" opacity=".2"/><path d="m14 12.03125c-1.155927 0-1.96875.812823-1.96875 1.96875v9 33 17 8.28125.71875c0 1.077732.717552 1.836973 1.75 1.9375.07491.0073.140555.03125.21875.03125h5 58 5c.07224 0 .1493-.0086.21875-.03125 1.032448-.100527 1.75-.859768 1.75-1.9375v-.71875-8.28125-17-16.0625c-9.316072-9.28832-18.604243-18.604243-27.90625-27.90625h-41.34375z" fill="url(#r)"/><path d="m17.90625 17.0625c-.459951.04302-.84925.475575-.84375.9375v9 42 9c-.0037.491884.445616.941233.9375.9375h5 55c.491884.0037.941233-.445616.9375-.9375v-9-27.40625c-.0027-.244241-.10626-.48584-.28125-.65625l-23.59375-23.59375c-.17041-.17499-.412009-.278532-.65625-.28125h-36.40625c-.03122-.0016-.06253-.0016-.09375 0z" fill="url(#l)" opacity=".6"/><path d="m18 18v9 42 9h5 55v-9-27.40625l-23.59375-23.59375z" fill="url(#k)"/><path d="m18 18v9 42 9h5 55v-9-27.40625l-23.59375-23.59375zm1 1h35.03125l22.96875 22.96875v27.03125 8h-54-4v-8-42z" fill="#fff" opacity=".7"/><path d="m14 12.03125c-1.155927 0-1.96875.812823-1.96875 1.96875v9 33 17 8.28125.71875c0 1.077732.717552 1.836973 1.75 1.9375.07491.0073.140555.03125.21875.03125h5 58 5c.07224 0 .1493-.0086.21875-.03125 1.032448-.100527 1.75-.859768 1.75-1.9375v-.71875-8.28125-17-16.0625c-9.316072-9.28832-18.604243-18.604243-27.90625-27.90625h-41.34375zm0 .96875h.71875 40.9375c9.113593 9.114133 18.214692 18.240801 27.34375 27.34375v15.65625 17 8.28125.71875c0 .648416-.267049.909555-.875.96875a.96731774.96731774 0 0 0 -.125.03125h-5-58-5c.119302 0 .09888-.0094-.125-.03125-.607951-.059195-.875-.320334-.875-.96875v-.71875-8.28125-17-33-9c0-.702508.297492-1 1-1z" opacity=".1"/><path d="m14 12.03125c-1.155927 0-1.96875.812823-1.96875 1.96875v1c0-1.155927.812823-1.96875 1.96875-1.96875h.71875 41.34375c9.302007 9.302007 18.590178 18.61793 27.90625 27.90625v-1c-9.316072-9.28832-18.604243-18.604243-27.90625-27.90625h-41.34375z" opacity=".2"/><path d="m14 12.03125c-1.155927 0-1.96875.812823-1.96875 1.96875v9 33 17 8.28125.71875c0 1.077732.717552 1.836973 1.75 1.9375.07491.0073.140555.03125.21875.03125h5 58 5c.07224 0 .1493-.0086.21875-.03125 1.032448-.100527 1.75-.859768 1.75-1.9375v-.71875-8.28125-17-16.0625c-9.316072-9.28832-18.604243-18.604243-27.90625-27.90625h-41.34375z" fill="url(#r)"/><path d="m17.90625 17.0625c-.459951.04302-.84925.475575-.84375.9375v9 42 9c-.0037.491884.445616.941233.9375.9375h5 55c.491884.0037.941233-.445616.9375-.9375v-9-27.40625c-.0027-.244241-.10626-.48584-.28125-.65625l-23.59375-23.59375c-.17041-.17499-.412009-.278532-.65625-.28125h-36.40625c-.03122-.0016-.06253-.0016-.09375 0z" fill="url(#l)" opacity=".6"/><path d="m18 18v9 42 9h5 55v-9-27.40625l-23.59375-23.59375z" fill="url(#k)"/><path d="m18 18v9 42 9h5 55v-9-27.40625l-23.59375-23.59375zm1 1h35.03125l22.96875 22.96875v27.03125 8h-54-4v-8-42z" fill="#fff" opacity=".7"/><path d="m14 12.03125c-1.155927 0-1.96875.812823-1.96875 1.96875v9 33 17 8.28125.71875c0 1.077732.717552 1.836973 1.75 1.9375.07491.0073.140555.03125.21875.03125h5 58 5c.07224 0 .1493-.0086.21875-.03125 1.032448-.100527 1.75-.859768 1.75-1.9375v-.71875-8.28125-17-16.0625c-9.316072-9.28832-18.604243-18.604243-27.90625-27.90625h-41.34375zm0 .96875h.71875 40.9375c9.113593 9.114133 18.214692 18.240801 27.34375 27.34375v15.65625 17 8.28125.71875c0 .648416-.267049.909555-.875.96875a.96731774.96731774 0 0 0 -.125.03125h-5-58-5c.119302 0 .09888-.0094-.125-.03125-.607951-.059195-.875-.320334-.875-.96875v-.71875-8.28125-17-33-9c0-.702508.297492-1 1-1z" opacity=".1"/><path d="m14 12.03125c-1.155927 0-1.96875.812823-1.96875 1.96875v1c0-1.155927.812823-1.96875 1.96875-1.96875h.71875 41.34375c9.302007 9.302007 18.590178 18.61793 27.90625 27.90625v-1c-9.316072-9.28832-18.604243-18.604243-27.90625-27.90625h-41.34375z" opacity=".2"/></g><g><path d="m-657 1743.6378h12v1.000016h-12z" fill="url(#u)" opacity=".5"/><path d="m-272.69141 1850.64h7.38462v1.000016h-7.38462z" fill="url(#t)" opacity=".5" transform="rotate(90)"/><path d="m44 36h24v16h-24z" fill="url(#B)"/><path d="m58 36v16h10v-16z" fill="url(#R)" opacity=".5"/><path d="m32 38v2h10v-2zm-4 4v2h14v-2zm0 4v2h14v-2zm0 4v2h14v-2zm0 4v2h40v-2zm0 4v2h40v-2zm0 4v2h40v-2zm0 4v2h40v-2zm0 4v2h26v-2z" fill="url(#Q)"/><path d="m32 38v2h6v-2zm-4 4v2h10v-2zm0 4v2h10v-2zm0 4v2h10v-2zm0 4v2h10v-2zm0 4v2h10v-2zm0 4v2h10v-2zm0 4v2h10v-2zm0 4v2h10v-2z" fill="url(#A)" opacity=".5"/><path d="m46 38h21v13h-21z" fill="url(#P)" opacity=".5"/><g transform="matrix(.2631452 0 0 .24957588 42.842258 56.488349)"><path d="m12.001465-73.997818h75.998436v48h-75.998436z" fill="url(#C)"/><path d="m67.34375-59.86c-15.06455 6.008-29.77881 14.2205-39.78125 27.25 20.47917 0 39.95543-.9876 60.4346-.9876l.003-9.0436c-5.06837-4.3947-14.40166-15.0328-20.65615-17.2188z" fill="#fff" opacity=".5"/><path d="m67.73365-58.9303c5.06659 2.5332 13.87172 11.3551 20.26345 17.733v7.5997h-58.26412c10.13459-12.6662 25.33429-20.2661 38.00067-25.3327z" fill="url(#D)"/><path d="m49.12987-44.2056s.44272-3.5773.44272-3.5773 6.65294-2.8463 6.65294-2.8463 3.74161-3.4959 3.74161-3.4959 6.57905-2.6676 6.57905-2.6676-1.71689 4.3216-1.71689 4.3216-2.56482 4.493-2.56482 4.493-1.52666 4.8826-1.52666 4.8826-1.05581 2.8131-1.05581 2.8131-10.55214-3.9232-10.55214-3.9232z" fill="#333"/><path d="m31.4375-67.0788c-6.44898 9.7171-11.85933 18.5139-19.43604 27.2131l.0676 7.0347c16.78125 0 44.49346.221 61.27471.221-14.05705-10.2048-29.3751-19.5806-38.09375-35.0312-1.2011 1.0694-3.04104-.519-3.8125.5624z" fill="url(#E)" opacity=".5"/><path d="m51.26735-47.5306c-7.58307-6.2914-11.39978-11.3997-16.46634-18.9996-1.48156.4474-1.42497.2772-2.53328 0 0 0-6.77802 10.0696-10.13314 15.1997-3.3551 5.1301-10.13459 12.6664-10.13459 12.6664v5.0665h58.26412s-13.91947-10.0546-18.99677-13.933z" fill="url(#F)"/><path d="m87.99992-38.6641h-3.26563s-14.46735 2.5333-14.46735 2.5333-14.29633-3.7999-16.44699-3.7999c-2.11303 0-8.88582 1.2666-10.15319 1.2666-.88823 0-6.33248-2.5332-7.61991-2.5332-2.12419 0-4.57202 2.6915-10.90522 3.7998 0 0-1.81956-4.0372-3.00704-3.7998-7.59985 2.9292-10.13459 2.5332-10.13459 2.5332v12.6664h75.9971s.002-12.6664.002-12.6664h.00028z" fill="url(#G)"/><path d="m12.00148-36.1308-.00099 10.1331h65.86679s2.53328-2.5333 2.53328-2.5333-2.53328-2.5332-2.53328-2.5332-5.06657-2.5334-5.06657-2.5334-12.66641-2.5332-12.66641-2.5332-12.6664-1.2667-12.6664-1.2667-11.39977 1.2667-11.39977 1.2667h-15.1997-8.86648z" fill="url(#H)"/><path d="m17.06803-41.1973s3.60932-5.7939 3.60932-5.7939 4.27798-5.063 4.27798-5.063 3.2666-5.9502 3.2666-5.9502 4.0458-5.9926 4.0458-5.9926-2.74602 7.5677-2.74602 7.5677-2.01069 6.2344-2.01069 6.2344-.97249 3.9328-.97249 3.9328-1.81468 4.19-1.81468 4.19c-.73049-.5328-1.65402-.5525-2.4869-.8228 0 0-2.37836.9322-2.37836.9322s-2.79056.7654-2.79056.7654z" fill="#333"/><path d="m26.36147-41.0854 2.72366-6.8784 1.32843-7.1007 1.92133-4.3839 1.19947-4.5486 1.66504 4.6804.47301 4.4696 2.01407 3.9818 1.99664 4.5749.37323 3.2315-3.35375.9414-3.18579-1.2421-3.5217 2.2848h-3.63364z" fill="url(#I)"/><path d="m59.01266-39.9261s-4.43728-3.1983-4.43728-3.1983-2.8341-2.261-2.8341-2.261 2.75251 4.2894 2.75251 4.2894 4.51887 1.1699 4.51887 1.1699z" fill="#808080"/><path d="m41.997818-88h32v76h-32z" fill="url(#J)" transform="matrix(0 -1 -1 0 0 0)"/><path d="m448.77203 1099.6875a7.5845342 4.6875 0 0 1 -7.58453 4.6875v-4.6875z" fill="#e9b913" opacity=".5" transform="matrix(0 1.97771 -3.2 0 3607 -946.62)"/><path d="m62.73029-42.9765s1.56591-5.0425 1.56591-5.0425 1.92131-4.3839 1.92131-4.3839 1.19949-4.5482 1.19949-4.5482 1.66502 4.6803 1.66502 4.6803 2.13549 3.9947 2.13549 3.9947 1.5391 3.9818 1.5391 3.9818-.2199 4.2582-.2199 4.2582 2.11487 2.1231 2.11487 2.1231-4.35374-.2356-4.35374-.2356-8.78699-1.8183-8.78699-1.8183 1.21952-3.0101 1.21952-3.0101z" fill="url(#K)"/><path d="m52.53397-41.1973s-3.68849-5.5898-3.68849-5.5898-6.54106-7.1331-6.54106-7.1331-5.41174-7.1153-5.41174-7.1153-2.09167-2.9615-2.09167-2.9615 2.267 7.6889 2.267 7.6889 2.48629 4.611 2.48629 4.611 2.2055 7.0438 2.2055 7.0438.64107 3.456.64107 3.456 2.27708.763 2.27708.763 3.48079-.8064 3.48079-.8064c1.46126-.1444 2.92258.026 4.37523.044z" fill="url(#L)"/><path d="m86.97077-40.1684s-2.97601-1.7897-2.97601-1.7897-4.16611-5.7083-4.16611-5.7083-6.12423-5.2942-6.12423-5.2942-4.78328-3.9905-4.78328-3.9905.92119 3.3345.92119 3.3345 4.22793 6.6695 4.22793 6.6695.46386 6.0147.46386 6.0147 2.54103 1.9517 2.54103 1.9517 5.69988-1.1083 5.69988-1.1083l4.19574-.078z" fill="url(#M)"/><path d="m12.02716-33.5313-.0257 7.5336h63.33202v-2.5333l-2.53326-2.5332-12.66643-2.5334-12.6664-1.2665-12.6664 1.2665-13.70914.3778z" fill="url(#N)"/><path d="m47.50168-36.0647-12.72043 1.4419-13.56901 1.0378-8.2752.029 8.15671.3393 13.98392-.021 12.39108-1.2813 12.6875 1.209 5.64415 1.101 6.9496 1.6177 2.28125 2.1875.3125 2.4063h1.15625l.20512-2.7873-3.41109-3.2617-13.20012-2.4813z" fill="#0088b7"/><path d="m39.86757-28.531s2.5333-2.5332 2.5333-2.5332h10.1331s7.59984 2.5332 7.59984 2.5332 2.53329 2.5333 2.53329 2.5333h-5.06655s-17.73298-2.5333-17.73298-2.5333z" fill="#1c99e0" opacity=".5"/><path d="m34.8125-63.9978 1.5625 5.9062c1.28434 2.3781 3.8039 3.3846 5.88388 5.4107 3.00348 2.9257 6.33881 6.3819 7.61612 7.4956l-1.03125-1.5938-6.53125-7.1562-5.40625-7.0938z" fill="#fff" opacity=".4"/><path d="m32.28125-63.9978-3.26961 7.6132-3.26164 9.1368-3.5736 4.3728c.51396.1149 2.10574.4962 2.54235.8147l1.8125-4.1875.96875-3.9375 2.03125-6.25z" opacity=".25"/><path d="m36.03125-41.1853c-2.06881 0-4.43308 2.5305-10.40625 3.6875l-.21875.125c.10772.037.48667.1051 1.8125-.094 1.76776-.2652 8.0599-2.9322 9.5625-2.8437 1.5026.088 5.99111 2.6508 6.875 2.5625.88388-.089 9.37776-1.3224 10.96875-.9688 1.59099.3535 16.1875 3.625 16.1875 3.625l13.9375-2.5625 3.25.094v-1.0938h-3.28125l-14.4375 2.5313s-14.31809-3.8125-16.46875-3.8125c-2.11303 0-8.88888 1.2812-10.15625 1.2812-.88823 0-6.33757-2.5312-7.625-2.5312z" fill="#ff0" opacity=".35"/><path d="m448.77203 1099.6875a7.5845342 4.6875 0 0 1 -7.58453 4.6875v-4.6875z" fill="url(#O)" opacity=".74" transform="matrix(0 1.71401 -2.77333 0 3137.8 -830.2)"/><g fill="#fff"><path d="m72-73.9978c0 8.8432 7.15662 16 16 16v-.9884c-8.29749 0-15.01158-6.7142-15.01158-15.0116z" opacity=".5"/><path d="m68.90625-56.9666.9375 3.3438 4.21875 6.6875.46875 6 2.53125 1.9687.4375-.094-2.25-2.25-.4375-5.75-2.41291-3.709 6.47541 3.459 5.125 5.3437-4.15625-5.6875-6.125-5.3125zm15.09375 15 .25.2813-.0625-.1563z" opacity=".4"/><path d="m12-73.9978v48h76v-48zm1 1h74v46h-74z" opacity=".35"/></g></g><path d="m58 54v2h10v-2zm0 4v2h10v-2zm0 4v2h10v-2zm0 4v2h10v-2z" fill="url(#R)" opacity=".5"/></g></svg>