<svg enable-background="new 0 0 2289.75 2130" viewBox="0 0 2289.75 2130" xmlns="http://www.w3.org/2000/svg" xmlns:xlink="http://www.w3.org/1999/xlink"><linearGradient id="a" gradientTransform="matrix(1 0 0 -1 0 2132)" gradientUnits="userSpaceOnUse" x1="203.5132" x2="967.9868" y1="1729.0183" y2="404.9817"><stop offset="0" stop-color="#18884f"/><stop offset=".5" stop-color="#117e43"/><stop offset="1" stop-color="#0b6631"/></linearGradient><path d="m1437.75 1011.75-905.25-159.75v1180.393c0 53.907 43.7 97.607 97.607 97.607h1562.036c53.907 0 97.607-43.7 97.607-97.607v-434.893z" fill="#185c37"/><path d="m1437.75 0h-807.643c-53.907 0-97.607 43.7-97.607 97.607v434.893l905.25 532.5 479.25 159.75 372.75-159.75v-532.5z" fill="#21a366"/><path d="m532.5 532.5h905.25v532.5h-905.25z" fill="#107c41"/><path d="m1180.393 426h-647.893v1331.25h647.893c53.834-.175 97.432-43.773 97.607-97.607v-1136.036c-.175-53.834-43.773-97.432-97.607-97.607z" opacity=".1"/><path d="m1127.143 479.25h-594.643v1331.25h594.643c53.834-.175 97.432-43.773 97.607-97.607v-1136.036c-.175-53.834-43.773-97.432-97.607-97.607z" opacity=".2"/><path d="m1127.143 479.25h-594.643v1224.75h594.643c53.834-.175 97.432-43.773 97.607-97.607v-1029.536c-.175-53.834-43.773-97.432-97.607-97.607z" opacity=".2"/><path d="m1073.893 479.25h-541.393v1224.75h541.393c53.834-.175 97.432-43.773 97.607-97.607v-1029.536c-.175-53.834-43.773-97.432-97.607-97.607z" opacity=".2"/><path d="m97.607 479.25h976.285c53.907 0 97.607 43.7 97.607 97.607v976.285c0 53.907-43.7 97.607-97.607 97.607h-976.285c-53.907.001-97.607-43.699-97.607-97.606v-976.286c0-53.907 43.7-97.607 97.607-97.607z" fill="url(#a)"/><path d="m302.3 1382.264 205.332-318.169-188.132-316.412h151.336l102.666 202.35c9.479 19.223 15.975 33.494 19.49 42.919h1.331c6.745-15.336 13.845-30.228 21.3-44.677l109.748-200.485h138.929l-192.925 314.548 197.825 319.925h-147.822l-118.588-222.105c-5.586-9.45-10.326-19.376-14.164-29.66h-1.757c-3.474 10.075-8.083 19.722-13.739 28.755l-122.102 223.011z" fill="#fff"/><path d="m2192.143 0h-754.393v532.5h852v-434.893c0-53.907-43.7-97.607-97.607-97.607z" fill="#33c481"/><path d="m1437.75 1065h852v532.5h-852z" fill="#107c41"/></svg>